<svg width="89" height="115" viewBox="0 0 89 115" fill="none" xmlns="http://www.w3.org/2000/svg">
<path d="M80.3939 114.433C79.1335 114.432 77.8898 114.144 76.7552 113.59C75.6201 113.035 74.6234 112.229 73.8391 111.23C71.4119 108.578 52.6536 89.9293 41.1591 78.5596C40.3636 77.7835 39.7276 76.856 39.2878 75.8298C38.8481 74.8041 38.6132 73.7002 38.5967 72.582C38.5802 71.4639 38.7824 70.3533 39.1917 69.3145C39.6011 68.2756 40.2094 67.3292 40.9817 66.5292C41.7539 65.7297 42.6749 65.0924 43.6915 64.6543C44.7082 64.2161 45.8004 63.9864 46.9053 63.9773C48.0101 63.9681 49.1059 64.1806 50.1293 64.6019C51.1528 65.0238 52.0836 65.6459 52.8685 66.4332C52.9505 66.5145 61.229 74.704 69.4457 82.8849L72.0202 85.4491V45.6263C72.0202 30.1396 59.6739 17.5401 44.4974 17.5401C29.3209 17.5401 16.9746 30.1396 16.9746 45.6263V105.955C16.9746 108.203 16.0921 110.36 14.5212 111.95C12.9503 113.539 10.8197 114.432 8.59814 114.432C6.37655 114.432 4.24599 113.539 2.67509 111.95C1.1042 110.36 0.22168 108.203 0.22168 105.955V45.6263C0.22168 20.7897 20.0836 0.583984 44.4974 0.583984C68.9109 0.583984 88.773 20.7897 88.773 45.6263V105.955C88.772 108.203 87.889 110.36 86.3178 111.95C84.7465 113.54 82.6157 114.433 80.3939 114.433ZM72.7785 109.477L72.782 109.485L72.7785 109.477Z" fill="black"/>
<path d="M44.4883 53.7828C49.7755 53.7828 54.0614 49.445 54.0614 44.0936C54.0614 38.7424 49.7755 34.4043 44.4883 34.4043C39.2011 34.4043 34.915 38.7424 34.915 44.0936C34.915 49.445 39.2011 53.7828 44.4883 53.7828Z" fill="#E74B2E"/>
</svg>
